<svg width="29" height="29" viewBox="0 0 29 29" fill="none" xmlns="http://www.w3.org/2000/svg">
<g clip-path="url(#clip0)">
<path d="M22.1476 14.2425H24.1704C24.6278 14.2425 24.9998 13.8704 24.9998 13.4131V11.3903C24.9998 10.9329 24.6278 10.5609 24.1704 10.5609H22.1476C21.6903 10.5609 21.3182 10.9329 21.3182 11.3903V13.4131C21.3182 13.8704 21.6903 14.2425 22.1476 14.2425V14.2425ZM22.1678 11.4105H24.1502V13.3929H22.1678V11.4105ZM22.1476 19.6234H24.1704C24.6278 19.6234 24.9998 19.2513 24.9998 18.794V16.7711C24.9998 16.3138 24.6278 15.9417 24.1704 15.9417H22.1476C21.6903 15.9417 21.3182 16.3138 21.3182 16.7711V18.794C21.3182 19.2513 21.6903 19.6234 22.1476 19.6234V19.6234ZM22.1678 16.7913H24.1502V18.7738H22.1678V16.7913ZM16.375 14.2425H18.3979C18.8552 14.2425 19.2272 13.8704 19.2272 13.4131V11.3903C19.2272 10.9329 18.8552 10.5609 18.3979 10.5609H16.375C15.9177 10.5609 15.5456 10.9329 15.5456 11.3903V13.4131C15.5456 13.8704 15.9177 14.2425 16.375 14.2425ZM16.3952 11.4105H18.3776V13.3929H16.3952V11.4105ZM6.85268 21.0703H4.82982C4.3725 21.0703 4.00043 21.4424 4.00043 21.8997V23.9226C4.00043 24.3799 4.3725 24.752 4.82982 24.752H6.85268C7.31 24.752 7.68207 24.3799 7.68207 23.9226V21.8997C7.68207 21.4424 7.31 21.0703 6.85268 21.0703ZM6.83246 23.9023H4.85004V21.9199H6.83246V23.9023ZM6.85268 10.5609H4.82982C4.3725 10.5609 4.00043 10.9329 4.00043 11.3903V13.4131C4.00043 13.8704 4.3725 14.2425 4.82982 14.2425H6.85268C7.31 14.2425 7.68207 13.8704 7.68207 13.4131V11.3903C7.68207 10.9329 7.31 10.5609 6.85268 10.5609ZM6.83246 13.3929H4.85004V11.4105H6.83246V13.3929ZM16.375 19.4972H18.3979C18.8552 19.4972 19.2272 19.1252 19.2272 18.6678V16.645C19.2272 16.1877 18.8552 15.8156 18.3979 15.8156H16.375C15.9177 15.8156 15.5456 16.1877 15.5456 16.645V18.6678C15.5456 19.1252 15.9177 19.4972 16.375 19.4972ZM16.3952 16.6652H18.3776V18.6476H16.3952V16.6652ZM25.4217 1.9413H23.6055V1.2918C23.6055 0.57949 23.026 0 22.3137 0H22.1186C21.4064 0 20.8269 0.57949 20.8269 1.2918V1.9413H8.17337V1.2918C8.17337 0.57949 7.59388 0 6.88157 0H6.6865C5.97419 0 5.3947 0.57949 5.3947 1.2918V1.9413H3.57852C2.40577 1.9413 1.45166 2.89541 1.45166 4.06816V26.876C1.45166 28.0472 2.40447 29 3.57568 29H25.4247C26.5959 29 27.5487 28.0472 27.5487 26.876V4.06816C27.5487 2.89541 26.5945 1.9413 25.4217 1.9413V1.9413ZM21.6765 1.2918C21.6765 1.04796 21.8749 0.849609 22.1187 0.849609H22.3138C22.5576 0.849609 22.756 1.04796 22.756 1.2918V1.9413H21.6765V1.2918ZM6.24436 1.2918C6.24436 1.04796 6.44272 0.849609 6.68656 0.849609H6.88163C7.12547 0.849609 7.32382 1.04796 7.32382 1.2918V1.9413H6.24442V1.2918H6.24436ZM26.699 26.876C26.699 27.5787 26.1274 28.1504 25.4246 28.1504H3.57563C2.87289 28.1504 2.30121 27.5787 2.30121 26.876V26.8733C2.65714 27.1415 3.09956 27.3008 3.57852 27.3008H20.802C21.3701 27.3008 21.9042 27.0795 22.3059 26.6778L26.699 22.2846V26.876ZM21.8724 25.9097C21.9057 25.7723 21.9238 25.6289 21.9238 25.4814V22.6457C21.9238 22.111 22.3589 21.676 22.8936 21.676H25.7292C25.8768 21.676 26.0202 21.6578 26.1576 21.6245L21.8724 25.9097ZM26.699 8.01204H8.59818C8.36357 8.01204 8.17337 8.20224 8.17337 8.43685C8.17337 8.67145 8.36357 8.86165 8.59818 8.86165H26.699V19.8566C26.699 20.3914 26.264 20.8264 25.7292 20.8264H22.8936C21.8904 20.8264 21.0742 21.6426 21.0742 22.6458V25.4814C21.0742 26.0162 20.6392 26.4512 20.1045 26.4512H3.57852C2.87425 26.4512 2.30127 25.8783 2.30127 25.1739V8.86165H6.89896C7.13356 8.86165 7.32376 8.67145 7.32376 8.43685C7.32376 8.20224 7.13356 8.01204 6.89896 8.01204H2.30121V4.06816C2.30121 3.36389 2.87419 2.79091 3.57846 2.79091H5.3947V4.03995C5.3947 4.75226 5.97419 5.33175 6.6865 5.33175C6.92111 5.33175 7.1113 5.14155 7.1113 4.90695C7.1113 4.67234 6.92111 4.48214 6.6865 4.48214C6.44266 4.48214 6.24431 4.28379 6.24431 4.03995V2.79091H20.8269V4.03995C20.8269 4.75226 21.4064 5.33175 22.1187 5.33175C22.3533 5.33175 22.5435 5.14155 22.5435 4.90695C22.5435 4.67234 22.3533 4.48214 22.1187 4.48214C21.8749 4.48214 21.6765 4.28379 21.6765 4.03995V2.79091H25.4218C26.1261 2.79091 26.699 3.36389 26.699 4.06816V8.01204ZM6.85268 15.8156H4.82982C4.3725 15.8156 4.00043 16.1877 4.00043 16.645V18.6678C4.00043 19.1252 4.3725 19.4972 4.82982 19.4972H6.85268C7.31 19.4972 7.68207 19.1252 7.68207 18.6678V16.645C7.68207 16.1876 7.31 15.8156 6.85268 15.8156ZM6.83246 18.6476H4.85004V16.6652H6.83246V18.6476ZM10.6024 14.2425H12.6253C13.0826 14.2425 13.4547 13.8704 13.4547 13.4131V11.3903C13.4547 10.9329 13.0826 10.5609 12.6253 10.5609H10.6024C10.1451 10.5609 9.77302 10.9329 9.77302 11.3903V13.4131C9.77302 13.8704 10.1451 14.2425 10.6024 14.2425ZM10.6226 11.4105H12.605V13.3929H10.6226V11.4105ZM16.3947 23.9023C16.3842 23.6771 16.1982 23.4978 15.9704 23.4978C15.7357 23.4978 15.5455 23.688 15.5455 23.9226C15.5455 24.3799 15.9176 24.752 16.3749 24.752H18.3978C18.8551 24.752 19.2272 24.3799 19.2272 23.9226V21.8997C19.2272 21.4424 18.8551 21.0703 18.3978 21.0703H16.3749C15.9176 21.0703 15.5455 21.4424 15.5455 21.8997V22.4831C15.5455 22.7177 15.7357 22.9079 15.9704 22.9079C16.205 22.9079 16.3952 22.7177 16.3952 22.4831V21.9199H18.3776V23.9023H16.3947ZM10.6024 19.4972H12.6253C13.0826 19.4972 13.4547 19.1252 13.4547 18.6678V16.645C13.4547 16.1877 13.0826 15.8156 12.6253 15.8156H10.6024C10.1451 15.8156 9.77302 16.1877 9.77302 16.645V18.6678C9.77302 19.1252 10.1451 19.4972 10.6024 19.4972ZM10.6226 16.6652H12.605V18.6476H10.6226V16.6652ZM10.6024 24.752H12.6253C13.0826 24.752 13.4547 24.3799 13.4547 23.9226V21.8997C13.4547 21.4424 13.0826 21.0703 12.6253 21.0703H10.6024C10.1451 21.0703 9.77302 21.4424 9.77302 21.8997V23.9226C9.77302 24.3799 10.1451 24.752 10.6024 24.752ZM10.6226 21.9199H12.605V23.9023H10.6226V21.9199Z" fill="white"/>
</g>
<defs>
<clipPath id="clip0">
<rect width="29" height="29" fill="white"/>
</clipPath>
</defs>
</svg>
